<svg xmlns="http://www.w3.org/2000/svg" viewBox="0 0 480 270" shape-rendering="crispEdges"><rect x="0" y="0" width="480" height="270" fill="#9dd5de"/><rect x="0" y="138" width="480" height="132" fill="#82b76b"/><rect x="0" y="98" width="88" height="48" fill="#7ebcac"/><rect x="38" y="78" width="54" height="78" fill="#7ebcac"/><rect x="77" y="58" width="35" height="94" fill="#7ebcac"/><rect x="100" y="92" width="70" height="64" fill="#7ebcac"/><rect x="165" y="108" width="68" height="45" fill="#70ab91"/><rect x="204" y="84" width="66" height="77" fill="#70ab91"/><rect x="245" y="63" width="50" height="94" fill="#70ab91"/><rect x="280" y="91" width="88" height="70" fill="#70ab91"/><rect x="348" y="118" width="132" height="48" fill="#7ebcac"/><rect x="25" y="40" width="55" height="10" fill="#eef6df"/><rect x="34" y="34" width="27" height="8" fill="#eef6df"/><rect x="65" y="38" width="18" height="12" fill="#eef6df"/><rect x="180" y="26" width="55" height="10" fill="#eef6df"/><rect x="189" y="20" width="27" height="8" fill="#eef6df"/><rect x="220" y="24" width="18" height="12" fill="#eef6df"/><rect x="342" y="46" width="55" height="10" fill="#eef6df"/><rect x="351" y="40" width="27" height="8" fill="#eef6df"/><rect x="382" y="44" width="18" height="12" fill="#eef6df"/><rect x="0" y="236" width="480" height="34" fill="#69a34b"/><rect x="0" y="249" width="480" height="21" fill="#568d39"/><rect x="310" y="154" width="44" height="18" fill="#76c4da"/><rect x="315" y="159" width="34" height="2" fill="#b6e7df"/><rect x="320" y="172" width="48" height="16" fill="#76c4da"/><rect x="325" y="177" width="38" height="2" fill="#b6e7df"/><rect x="329" y="188" width="49" height="20" fill="#76c4da"/><rect x="334" y="193" width="39" height="2" fill="#b6e7df"/><rect x="348" y="207" width="52" height="20" fill="#76c4da"/><rect x="353" y="212" width="42" height="2" fill="#b6e7df"/><rect x="375" y="224" width="62" height="20" fill="#76c4da"/><rect x="380" y="229" width="52" height="2" fill="#b6e7df"/><rect x="399" y="242" width="81" height="28" fill="#76c4da"/><rect x="404" y="247" width="71" height="2" fill="#b6e7df"/><rect x="22" y="159" width="6" height="26" fill="#80532c"/><rect x="17" y="141" width="17" height="28" fill="#346a35"/><rect x="10" y="151" width="30" height="14" fill="#346a35"/><rect x="18" y="134" width="15" height="17" fill="#477e39"/><rect x="13" y="148" width="23" height="10" fill="#578f40"/><rect x="18" y="142" width="5" height="5" fill="#78ab4d"/><rect x="76" y="178" width="6" height="26" fill="#80532c"/><rect x="71" y="160" width="17" height="28" fill="#346a35"/><rect x="64" y="170" width="30" height="14" fill="#346a35"/><rect x="72" y="153" width="15" height="17" fill="#477e39"/><rect x="67" y="167" width="23" height="10" fill="#578f40"/><rect x="72" y="161" width="5" height="5" fill="#78ab4d"/><rect x="423" y="154" width="6" height="26" fill="#80532c"/><rect x="418" y="136" width="17" height="28" fill="#346a35"/><rect x="411" y="146" width="30" height="14" fill="#346a35"/><rect x="419" y="129" width="15" height="17" fill="#477e39"/><rect x="414" y="143" width="23" height="10" fill="#578f40"/><rect x="419" y="137" width="5" height="5" fill="#78ab4d"/><rect x="463" y="187" width="6" height="26" fill="#80532c"/><rect x="458" y="169" width="17" height="28" fill="#346a35"/><rect x="451" y="179" width="30" height="14" fill="#346a35"/><rect x="459" y="162" width="15" height="17" fill="#477e39"/><rect x="454" y="176" width="23" height="10" fill="#578f40"/><rect x="459" y="170" width="5" height="5" fill="#78ab4d"/><rect x="37" y="216" width="6" height="26" fill="#80532c"/><rect x="32" y="198" width="17" height="28" fill="#346a35"/><rect x="25" y="208" width="30" height="14" fill="#346a35"/><rect x="33" y="191" width="15" height="17" fill="#477e39"/><rect x="28" y="205" width="23" height="10" fill="#578f40"/><rect x="33" y="199" width="5" height="5" fill="#78ab4d"/><rect x="118" y="147" width="6" height="26" fill="#80532c"/><rect x="113" y="129" width="17" height="28" fill="#346a35"/><rect x="106" y="139" width="30" height="14" fill="#346a35"/><rect x="114" y="122" width="15" height="17" fill="#477e39"/><rect x="109" y="136" width="23" height="10" fill="#578f40"/><rect x="114" y="130" width="5" height="5" fill="#78ab4d"/><rect x="178" y="179" width="57" height="4" fill="#b88b4a"/><rect x="176" y="177" width="61" height="3" fill="#e8c872"/><rect x="177" y="174" width="4" height="21" fill="#dda059"/><rect x="178" y="176" width="1" height="17" fill="#f5e1a4"/><rect x="189" y="174" width="4" height="21" fill="#dda059"/><rect x="190" y="176" width="1" height="17" fill="#f5e1a4"/><rect x="201" y="174" width="4" height="21" fill="#dda059"/><rect x="202" y="176" width="1" height="17" fill="#f5e1a4"/><rect x="213" y="174" width="4" height="21" fill="#dda059"/><rect x="214" y="176" width="1" height="17" fill="#f5e1a4"/><rect x="225" y="174" width="4" height="21" fill="#dda059"/><rect x="226" y="176" width="1" height="17" fill="#f5e1a4"/><rect x="237" y="174" width="4" height="21" fill="#dda059"/><rect x="238" y="176" width="1" height="17" fill="#f5e1a4"/><rect x="195" y="131" width="66" height="47" fill="#c38645"/><rect x="201" y="137" width="54" height="40" fill="#e8c872"/><rect x="188" y="126" width="80" height="8" fill="#98533c"/><rect x="190" y="126" width="76" height="2" fill="#bd7650"/><rect x="195" y="119" width="66" height="8" fill="#98533c"/><rect x="197" y="119" width="62" height="2" fill="#bd7650"/><rect x="203" y="112" width="50" height="8" fill="#98533c"/><rect x="205" y="112" width="46" height="2" fill="#bd7650"/><rect x="213" y="105" width="30" height="8" fill="#98533c"/><rect x="215" y="105" width="26" height="2" fill="#bd7650"/><rect x="222" y="150" width="14" height="27" fill="#6b3710"/><rect x="225" y="152" width="9" height="24" fill="#8b5e2b"/><rect x="232" y="164" width="2" height="2" fill="#f2ba48"/><rect x="205" y="144" width="10" height="12" fill="#6b3710"/><rect x="207" y="146" width="6" height="8" fill="#9dd5de"/><rect x="244" y="144" width="10" height="12" fill="#6b3710"/><rect x="246" y="146" width="6" height="8" fill="#9dd5de"/><rect x="115" y="199" width="8" height="6" fill="#805335"/><rect x="118" y="196" width="2" height="5" fill="#477b38"/><rect x="116" y="194" width="5" height="3" fill="#78ab4d"/><rect x="115" y="209" width="8" height="6" fill="#805335"/><rect x="118" y="206" width="2" height="5" fill="#477b38"/><rect x="116" y="204" width="5" height="3" fill="#78ab4d"/><rect x="115" y="219" width="8" height="6" fill="#805335"/><rect x="118" y="216" width="2" height="5" fill="#477b38"/><rect x="116" y="214" width="5" height="3" fill="#78ab4d"/><rect x="125" y="199" width="8" height="6" fill="#805335"/><rect x="128" y="196" width="2" height="5" fill="#477b38"/><rect x="126" y="194" width="5" height="3" fill="#78ab4d"/><rect x="125" y="209" width="8" height="6" fill="#805335"/><rect x="128" y="206" width="2" height="5" fill="#477b38"/><rect x="126" y="204" width="5" height="3" fill="#78ab4d"/><rect x="125" y="219" width="8" height="6" fill="#805335"/><rect x="128" y="216" width="2" height="5" fill="#477b38"/><rect x="126" y="214" width="5" height="3" fill="#78ab4d"/><rect x="135" y="199" width="8" height="6" fill="#805335"/><rect x="138" y="196" width="2" height="5" fill="#477b38"/><rect x="136" y="194" width="5" height="3" fill="#78ab4d"/><rect x="135" y="209" width="8" height="6" fill="#805335"/><rect x="138" y="206" width="2" height="5" fill="#477b38"/><rect x="136" y="204" width="5" height="3" fill="#78ab4d"/><rect x="135" y="219" width="8" height="6" fill="#805335"/><rect x="138" y="216" width="2" height="5" fill="#477b38"/><rect x="136" y="214" width="5" height="3" fill="#78ab4d"/><rect x="145" y="199" width="8" height="6" fill="#805335"/><rect x="148" y="196" width="2" height="5" fill="#477b38"/><rect x="146" y="194" width="5" height="3" fill="#78ab4d"/><rect x="145" y="209" width="8" height="6" fill="#805335"/><rect x="148" y="206" width="2" height="5" fill="#477b38"/><rect x="146" y="204" width="5" height="3" fill="#78ab4d"/><rect x="145" y="219" width="8" height="6" fill="#805335"/><rect x="148" y="216" width="2" height="5" fill="#477b38"/><rect x="146" y="214" width="5" height="3" fill="#78ab4d"/><rect x="155" y="199" width="8" height="6" fill="#805335"/><rect x="158" y="196" width="2" height="5" fill="#477b38"/><rect x="156" y="194" width="5" height="3" fill="#78ab4d"/><rect x="155" y="209" width="8" height="6" fill="#805335"/><rect x="158" y="206" width="2" height="5" fill="#477b38"/><rect x="156" y="204" width="5" height="3" fill="#78ab4d"/><rect x="155" y="219" width="8" height="6" fill="#805335"/><rect x="158" y="216" width="2" height="5" fill="#477b38"/><rect x="156" y="214" width="5" height="3" fill="#78ab4d"/><rect x="165" y="199" width="8" height="6" fill="#805335"/><rect x="168" y="196" width="2" height="5" fill="#477b38"/><rect x="166" y="194" width="5" height="3" fill="#78ab4d"/><rect x="165" y="209" width="8" height="6" fill="#805335"/><rect x="168" y="206" width="2" height="5" fill="#477b38"/><rect x="166" y="204" width="5" height="3" fill="#78ab4d"/><rect x="165" y="219" width="8" height="6" fill="#805335"/><rect x="168" y="216" width="2" height="5" fill="#477b38"/><rect x="166" y="214" width="5" height="3" fill="#78ab4d"/><rect x="7" y="222" width="2" height="6" fill="#477b38"/><rect x="5" y="220" width="6" height="3" fill="#f2ba48"/><rect x="7" y="219" width="2" height="4" fill="#fff1c7"/><rect x="72" y="238" width="2" height="6" fill="#477b38"/><rect x="70" y="236" width="6" height="3" fill="#f2ba48"/><rect x="72" y="235" width="2" height="4" fill="#fff1c7"/><rect x="265" y="191" width="2" height="6" fill="#477b38"/><rect x="263" y="189" width="6" height="3" fill="#f2ba48"/><rect x="265" y="188" width="2" height="4" fill="#fff1c7"/><rect x="276" y="234" width="2" height="6" fill="#477b38"/><rect x="274" y="232" width="6" height="3" fill="#f2ba48"/><rect x="276" y="231" width="2" height="4" fill="#fff1c7"/><rect x="431" y="214" width="2" height="6" fill="#477b38"/><rect x="429" y="212" width="6" height="3" fill="#f2ba48"/><rect x="431" y="211" width="2" height="4" fill="#fff1c7"/><rect x="162" y="165" width="2" height="6" fill="#477b38"/><rect x="160" y="163" width="6" height="3" fill="#f2ba48"/><rect x="162" y="162" width="2" height="4" fill="#fff1c7"/></svg>